<?xml version="1.0" standalone="no"?>
<!DOCTYPE svg PUBLIC "-//W3C//DTD SVG 1.1//EN" "http://www.w3.org/Graphics/SVG/1.1/DTD/svg11.dtd">
<svg xmlns="http://www.w3.org/2000/svg" id="Layer_1" data-name="Layer 1" viewBox="0 0 46.79 50.09" width="46.790000915527344" height="50.09000015258789"><defs><style>.cls-1{fill:#b9baba;}.cls-2{fill:#04bfbf;}</style></defs><path class="cls-1" d="M102.28,11.05a31.4,31.4,0,0,0-3.34-2.63c-.63-.45-.71-.68-.31-1.33a2.53,2.53,0,0,0,.31-.74,5.45,5.45,0,0,0-.72-4.2A4.32,4.32,0,0,0,94.36-.08a22.58,22.58,0,0,0-3.18.35,56.13,56.13,0,0,0-12.51,4A26.44,26.44,0,0,0,70,9.93" transform="translate(-63 0.08)"/><path class="cls-2" d="M100.71,44.43c-.27-.39-.56-.8-.81-1.22a3,3,0,0,1-.28-.41A15.06,15.06,0,0,1,99,41.31c0-.09-.07-.17-.1-.26a.75.75,0,0,1-.07-.12l-.13-.36a15.5,15.5,0,0,0-1.09-2c-.25-.41-.5-.82-.78-1.2l-.23.26A13.61,13.61,0,0,1,92,40.83a14.65,14.65,0,0,1-11.31.05,13.61,13.61,0,0,1-4.56-3.2,14.91,14.91,0,0,1-3-4.82,16.71,16.71,0,0,1-1-6A16.43,16.43,0,0,1,74,19a30.72,30.72,0,0,0-.78-3,.38.38,0,0,1,0-.15l-.06-.08a6.09,6.09,0,0,0-.81-1.31,8.11,8.11,0,0,0-1.4-1c-.42-.29-.88-.53-1.27-.85a3.75,3.75,0,0,1-.93-1.13,1.43,1.43,0,0,1-.09-.27,22.78,22.78,0,0,0-4,6.61,24.15,24.15,0,0,0-1.66,9,24.37,24.37,0,0,0,1.66,9,22.46,22.46,0,0,0,4.72,7.41,21.83,21.83,0,0,0,7.37,5,26.68,26.68,0,0,0,19.32,0,22.65,22.65,0,0,0,5.24-3.09A3.41,3.41,0,0,1,100.71,44.43Z" transform="translate(-63 0.08)"/><path class="cls-1" d="M108.15,17.78a22.6,22.6,0,0,0-4.72-7.38,21.55,21.55,0,0,0-7.36-5,27,27,0,0,0-19.32,0,21.33,21.33,0,0,0-7.12,4.73,1.72,1.72,0,0,1,.28.37,7,7,0,0,0,.63,1,2,2,0,0,0,.51.56c.23.13.48.19.7.34a7.86,7.86,0,0,1,1.22.93l.17.19a3.32,3.32,0,0,1,1.09,1.85l.14.25h0v.14c.22.44.41.89.61,1.34A11.63,11.63,0,0,1,76.17,16a13.59,13.59,0,0,1,4.56-3.16,14.94,14.94,0,0,1,11.35,0A13.59,13.59,0,0,1,96.64,16a14.11,14.11,0,0,1,3,4.78,16.68,16.68,0,0,1,1,6,16.7,16.7,0,0,1-1,6,12.51,12.51,0,0,1-1.7,3.53c.55.37.57,1.15.87,1.78.1.2.19.42.27.63l.14.25h0A18.46,18.46,0,0,1,101,42c.41.74.9,1.44,1.35,2.17l1.06-1a22.3,22.3,0,0,0,4.72-7.41,24.37,24.37,0,0,0,1.66-9A24.21,24.21,0,0,0,108.15,17.78Z" transform="translate(-63 0.08)"/><path class="cls-1" d="M100.53,30.72a13.69,13.69,0,0,1-2.59,5.57c-.2.2-.3.17-.18.39.85,1.51,1.76,3,2.64,4.49.46.77.87,1.56,1.38,2.3s.1,1.12.6.62l.37-.38a26.67,26.67,0,0,0,4.08-5.94" transform="translate(-63 0.08)"/><path class="cls-2" d="M84.6,49.42A23,23,0,0,0,101.27,45c-1.87-2.47-2.44-5.52-4.2-8a.75.75,0,0,0-.24.37C96.14,39,94,40.16,92.38,40.7l-.74.74" transform="translate(-63 0.08)"/></svg>