<svg id="Layer_1" data-name="Layer 1" xmlns="http://www.w3.org/2000/svg" xmlns:xlink="http://www.w3.org/1999/xlink" viewBox="0 0 118.5 64.19"><defs><linearGradient id="linear-gradient" x1="32.1" y1="30.52" x2="69.83" y2="30.52" gradientUnits="userSpaceOnUse"><stop offset="0.13" stop-color="#04bfbf"/><stop offset="0.67" stop-color="aqua"/></linearGradient><linearGradient id="linear-gradient-2" x1="86" y1="26.92" x2="120.22" y2="26.92" gradientUnits="userSpaceOnUse"><stop offset="0.36" stop-color="#04c1c1"/><stop offset="1" stop-color="aqua"/></linearGradient></defs><path d="M101.91,47.47A36.3,36.3,0,0,1,98,41.52h-.11c-2.39,0-4.79,0-7.18-.06A5.26,5.26,0,0,1,89,41.21a4.28,4.28,0,0,1-2.79-4.33q.09-11.45.19-22.9c0-.94,0-.94,1-1h1.79l0-.21a6.68,6.68,0,0,0-.5-.55,13.44,13.44,0,0,1-3.18-4.46,26,26,0,0,0-1.33-2.34,1.43,1.43,0,0,0-1.37-.74c-1.56,0-3.12,0-4.69,0-.62,0-.85.19-.85.83,0,2.71,0,5.42,0,8.14,0,.94,0,1.88,0,2.82a1.09,1.09,0,0,1-.55.74c-.16.08-.59-.13-.73-.33C75.25,16,74.7,15,74.05,14.1a19.69,19.69,0,0,0-2.25-2.86,33,33,0,0,0-3.43-2.65c-.63-.46-.71-.69-.31-1.35a2.34,2.34,0,0,0,.31-.75,5.43,5.43,0,0,0-.73-4.23A4.32,4.32,0,0,0,63.78,0a21.88,21.88,0,0,0-3.22.36,56.27,56.27,0,0,0-12.65,4,26.35,26.35,0,0,0-8.75,5.75,1.41,1.41,0,0,0,.11,2.28,4.61,4.61,0,0,0,.89.52,5.26,5.26,0,0,1,2.56,2.41c.47.9.93,1.79,1.45,2.77.2-.27.34-.45.47-.64a14.12,14.12,0,0,1,17.08-4.94,13.55,13.55,0,0,1,8.08,9.11,16.75,16.75,0,0,1,.11,9.26,15.74,15.74,0,0,1-2.32,5,1.08,1.08,0,0,0-.13.9c.76,1.57,1.59,3.1,2.4,4.65.41.79.79,1.61,1.25,2.37s.63.62,1.14.14a22.72,22.72,0,0,0,4.31-5.35c.12-.22.27-.42.5-.78.09.37.14.55.17.72A12.72,12.72,0,0,0,89,49.5c4.15.18,8.32.1,12.48.12a1,1,0,0,0,.53-.28,1.85,1.85,0,0,0,.47-1.23C102.28,47.9,102.09,47.69,101.91,47.47Z" transform="translate(-1.72 0)" fill="#cecece"/><path d="M66.18,37.35a2.87,2.87,0,0,0-.31.2,11.06,11.06,0,0,1-4.34,2.85c-5.1,1.57-9.86,1.16-14-2a14.25,14.25,0,0,1-5.41-9.67,13.83,13.83,0,0,1,.56-7.28,4.63,4.63,0,0,0-.53-4.73,1.68,1.68,0,0,1-.15-.3,5.29,5.29,0,0,0-2.87-2.84,3.53,3.53,0,0,1-1.83-2,2.47,2.47,0,0,1-.42.51,6.4,6.4,0,0,1-1.41,1.07,3.34,3.34,0,0,1-1.56.36l0,0a2.39,2.39,0,0,1-.28,1.05A7.16,7.16,0,0,1,32,18.52a7.32,7.32,0,0,1-.95,3.29,3.22,3.22,0,0,1-.4,1.93c0,1.86.25,3.68.39,5.16a16.31,16.31,0,0,0,3.2,8.6,28.18,28.18,0,0,1,3.21,4.81L38,41.4a22.39,22.39,0,0,0,15.49,7.94c6.1.55,11.82-.55,16.92-4.23C68.54,42.73,68,39.72,66.18,37.35ZM32.77,25.83l-1.67-.78,1.76-1C32.83,24.73,32.8,25.19,32.77,25.83Z" transform="translate(-1.72 0)" fill="url(#linear-gradient)"/><path d="M120.21,5.69a1.07,1.07,0,0,0-1.06-1.07H88.39c-.46,0-.91-.09-1.37-.12-.29,0-.58,0-1,0,.54,1,1,1.86,1.45,2.75a12,12,0,0,0,3.09,4.15,5.77,5.77,0,0,1,.68.79,1.43,1.43,0,0,0,1.39.61,27.62,27.62,0,0,1,3.64,0c1.43.09,2,0,2.16.16s.14.74.12.83c-.17.85-.15,9.1,0,21.89a5.63,5.63,0,0,0,.1.91,19.39,19.39,0,0,0,1.21,3.75,43,43,0,0,0,2.57,4.21A14.1,14.1,0,0,0,108.3,49s.67.22,6.32.34a.5.5,0,0,0,.33-.1.74.74,0,0,0,.16-.57c0-2.23,0-4.46,0-6.69,0-.56-.23-.71-.75-.7-.93,0-1.87,0-2.8,0a4.09,4.09,0,0,1-3.79-4.06q0-11.78,0-23.56c0-.64.17-.87.85-.87,3.59,0,7.17,0,10.76,0,.63,0,.85-.2.84-.84C120.19,9.87,120.21,7.78,120.21,5.69Z" transform="translate(-1.72 0)" fill="url(#linear-gradient-2)"/><path d="M38.07,33a12.55,12.55,0,0,0-2.85-3.91,10.89,10.89,0,0,0-4.13-2.43,11.17,11.17,0,0,0,3.53-2.28A10.76,10.76,0,0,0,37,20.9a10.25,10.25,0,0,0,.89-4.2,11.31,11.31,0,0,0-1.55-6,11.09,11.09,0,0,0-4.1-3.95,11.69,11.69,0,0,0-5.72-1.42H1.72l2.14,7.35L26,12.47a5.11,5.11,0,0,1,2.72.73,5.63,5.63,0,0,1,1.93,1.92,5.42,5.42,0,0,1,0,5.4,5.49,5.49,0,0,1-1.93,2,5.11,5.11,0,0,1-2.72.73L7,23.27h0l1,3.48L6.83,30.84h.09l0-.1,17.76.1a5.16,5.16,0,0,1,2.71.72,5.66,5.66,0,0,1,1.93,1.93,5.36,5.36,0,0,1,0,5.4,5.57,5.57,0,0,1-1.93,2,5.16,5.16,0,0,1-2.71.72H3.9v0h0l-2.18,8H27.3a12.08,12.08,0,0,0,5.93-1.45A11.3,11.3,0,0,0,37.5,44a11.69,11.69,0,0,0,1.61-6.18A11.43,11.43,0,0,0,38.07,33Z" transform="translate(-1.72 0)" fill="#cecece"/><path d="M63.05,64v-.75h3a1.24,1.24,0,0,0,.64-.16,1.07,1.07,0,0,0,.4-.42,1,1,0,0,0,.15-.53,1.06,1.06,0,0,0-.13-.5,1,1,0,0,0-.36-.38,1.05,1.05,0,0,0-.59-.15H64.8a2.38,2.38,0,0,1-1-.2,1.44,1.44,0,0,1-.66-.58,1.79,1.79,0,0,1,0-1.74,1.68,1.68,0,0,1,.63-.64,1.84,1.84,0,0,1,1-.24h2.85v.75H64.75a1,1,0,0,0-.75.29,1,1,0,0,0-.27.66.89.89,0,0,0,.27.64,1.08,1.08,0,0,0,.82.29h1.23a2.54,2.54,0,0,1,1.12.22,1.55,1.55,0,0,1,.67.62,1.72,1.72,0,0,1,.23.92,1.79,1.79,0,0,1-.25.92,1.9,1.9,0,0,1-.67.71,1.79,1.79,0,0,1-1,.27Z" transform="translate(-1.72 0)" fill="#cecece"/><path d="M69.49,64v-.75h3a1.26,1.26,0,0,0,.64-.16,1.24,1.24,0,0,0,.4-.42,1.13,1.13,0,0,0,.14-.53,1.06,1.06,0,0,0-.12-.5,1,1,0,0,0-.36-.38,1.08,1.08,0,0,0-.59-.15H71.24a2.38,2.38,0,0,1-1-.2,1.47,1.47,0,0,1-.67-.58,1.76,1.76,0,0,1-.23-.89,1.67,1.67,0,0,1,.23-.85,1.59,1.59,0,0,1,.62-.64,1.86,1.86,0,0,1,.95-.24H74v.75H71.19a1,1,0,0,0-.75.29,1,1,0,0,0-.27.66.89.89,0,0,0,.27.64,1.07,1.07,0,0,0,.81.29h1.23a2.48,2.48,0,0,1,1.12.22,1.52,1.52,0,0,1,.68.62,1.82,1.82,0,0,1,.23.92,1.9,1.9,0,0,1-.25.92,2,2,0,0,1-.67.71,1.84,1.84,0,0,1-1,.27Z" transform="translate(-1.72 0)" fill="#cecece"/><path d="M79.25,64a4.17,4.17,0,0,1-1.8-.38,3,3,0,0,1-1.26-1.08,3,3,0,0,1-.46-1.68,3.62,3.62,0,0,1,.37-1.66,2.87,2.87,0,0,1,1-1.19,2.76,2.76,0,0,1,1.57-.45,2.89,2.89,0,0,1,1.57.41,2.65,2.65,0,0,1,1,1.1,3.56,3.56,0,0,1,.33,1.55,2.62,2.62,0,0,1,0,.27,1.59,1.59,0,0,1,0,.26H76.64A2,2,0,0,0,77,62.34,2.17,2.17,0,0,0,78,63a3.22,3.22,0,0,0,1.24.24h1.59V64Zm-2.61-3.47h4.07a3.74,3.74,0,0,0,0-.54,2.74,2.74,0,0,0-.18-.6,2,2,0,0,0-.36-.54,1.54,1.54,0,0,0-.58-.4,2,2,0,0,0-.85-.16,1.88,1.88,0,0,0-.86.2,2,2,0,0,0-.64.52,2.56,2.56,0,0,0-.55,1.52Z" transform="translate(-1.72 0)" fill="#cecece"/><path d="M83,64v-.75h3a1.26,1.26,0,0,0,.64-.16,1.24,1.24,0,0,0,.4-.42,1.13,1.13,0,0,0,.14-.53,1.06,1.06,0,0,0-.12-.5,1,1,0,0,0-.36-.38,1.08,1.08,0,0,0-.59-.15H84.74a2.38,2.38,0,0,1-1-.2,1.47,1.47,0,0,1-.67-.58,1.76,1.76,0,0,1-.23-.89,1.67,1.67,0,0,1,.23-.85,1.59,1.59,0,0,1,.62-.64,1.86,1.86,0,0,1,.95-.24h2.85v.75H84.69a1,1,0,0,0-.75.29,1,1,0,0,0-.27.66.89.89,0,0,0,.27.64,1.07,1.07,0,0,0,.81.29H86a2.48,2.48,0,0,1,1.12.22,1.52,1.52,0,0,1,.68.62,1.82,1.82,0,0,1,.23.92,1.9,1.9,0,0,1-.25.92,2,2,0,0,1-.67.71,1.84,1.84,0,0,1-1,.27Z" transform="translate(-1.72 0)" fill="#cecece"/><path d="M89.42,64v-.75h3a1.24,1.24,0,0,0,.64-.16,1.07,1.07,0,0,0,.4-.42,1,1,0,0,0,.15-.53,1,1,0,0,0-.13-.5,1.06,1.06,0,0,0-.35-.38,1.11,1.11,0,0,0-.6-.15H91.17a2.38,2.38,0,0,1-1-.2,1.44,1.44,0,0,1-.66-.58,1.76,1.76,0,0,1-.23-.89,1.66,1.66,0,0,1,.22-.85,1.68,1.68,0,0,1,.63-.64,1.84,1.84,0,0,1,1-.24h2.85v.75H91.12a1,1,0,0,0-.75.29,1,1,0,0,0-.27.66.89.89,0,0,0,.27.64,1.09,1.09,0,0,0,.82.29h1.23a2.51,2.51,0,0,1,1.12.22,1.5,1.5,0,0,1,.67.62,1.72,1.72,0,0,1,.23.92,1.89,1.89,0,0,1-.24.92,2,2,0,0,1-.68.71,1.79,1.79,0,0,1-1,.27Z" transform="translate(-1.72 0)" fill="#cecece"/><path d="M99.14,64.06l.15-.31a7.78,7.78,0,0,0,.42-.93,7.17,7.17,0,0,0,.35-1.2c0-.19.06-.38.09-.57a6.16,6.16,0,0,0,0-1,4.17,4.17,0,0,0-.19-1.11,1.71,1.71,0,0,0-.51-.76,1.26,1.26,0,0,0-.68-.29,1.88,1.88,0,0,0-.58,0,1.35,1.35,0,0,0-.87.47,2.17,2.17,0,0,0-.41.9,5.35,5.35,0,0,0-.09,1.38A6.37,6.37,0,0,0,97.1,62a8.82,8.82,0,0,0,.8,2l0,0v0H95.74s0,0,0,0l-.3-1c-.06-.21-.12-.42-.19-.63v0h.26c.06.17.12.35.17.52s.05.17.08.25a.05.05,0,0,0,0,0h1.34a.16.16,0,0,0,0-.16,6.68,6.68,0,0,1-.94-1.31,3.21,3.21,0,0,1-.34-1.06,3,3,0,0,1,0-.74,2.56,2.56,0,0,1,.68-1.52,2.78,2.78,0,0,1,1.3-.79,3.3,3.3,0,0,1,1-.09,3,3,0,0,1,.94.2,2.78,2.78,0,0,1,.94.65,2.38,2.38,0,0,1,.57.9,2.88,2.88,0,0,1,.15.72,3.18,3.18,0,0,1-.38,1.76,6.29,6.29,0,0,1-.66,1c-.1.12-.2.23-.29.35s0,.08,0,.13h1.33s0,0,.06,0l.25-.76h.27a1.72,1.72,0,0,1-.07.21c-.14.48-.29,1-.43,1.45,0,0,0,0-.06,0H99.14Z" transform="translate(-1.72 0)" fill="#cecece"/><path d="M102.76,64v-4.5a1.74,1.74,0,0,1,.47-1.31,1.76,1.76,0,0,1,1.31-.48h1.09v.75h-.91a1,1,0,0,0-.82.3,1.17,1.17,0,0,0-.28.84V64Z" transform="translate(-1.72 0)" fill="#cecece"/><path d="M107.17,56.61a.57.57,0,0,1-.43-.19.59.59,0,0,1-.19-.43.61.61,0,0,1,.19-.44.6.6,0,0,1,.43-.18.61.61,0,0,1,.62.62.63.63,0,0,1-.62.62ZM106.74,64V57.74h.86V64Z" transform="translate(-1.72 0)" fill="#cecece"/><path d="M112.19,64.19a2.94,2.94,0,0,1-1.63-.44,3,3,0,0,1-1-1.19,4,4,0,0,1-.35-1.67,3.6,3.6,0,0,1,.39-1.69A2.89,2.89,0,0,1,110.69,58a3.36,3.36,0,0,1,1.74-.44,3.2,3.2,0,0,1,1.69.44,2.87,2.87,0,0,1,1.09,1.15,3.45,3.45,0,0,1,.39,1.64V64h-.85V62.62h0a2.59,2.59,0,0,1-.51.74,3,3,0,0,1-.85.6A2.79,2.79,0,0,1,112.19,64.19Zm.18-.74a2.18,2.18,0,0,0,1.22-.34,2.31,2.31,0,0,0,.83-.92,2.78,2.78,0,0,0,.31-1.33,2.82,2.82,0,0,0-.29-1.29,2.18,2.18,0,0,0-.8-.9,2.14,2.14,0,0,0-1.23-.34,2.36,2.36,0,0,0-1.27.34,2.22,2.22,0,0,0-.81.93,3.14,3.14,0,0,0,0,2.59,2.17,2.17,0,0,0,.8.92A2.24,2.24,0,0,0,112.37,63.45Z" transform="translate(-1.72 0)" fill="#cecece"/><path d="M61.41,64h-.22c-.38,0-.76,0-1.14,0a.1.1,0,0,1-.12-.09c-.16-.56-.3-1.14-.41-1.72,0,0,0,0,0-.08h0a.41.41,0,0,0,0,.09,8,8,0,0,1-.69,1.12,1.94,1.94,0,0,1-1.07.75A2,2,0,0,1,56,63.86a2,2,0,0,1-.76-1,4.53,4.53,0,0,1-.31-1.45,5.88,5.88,0,0,1,.17-2,2.92,2.92,0,0,1,.66-1.27,2.3,2.3,0,0,1,1.51-.76,3.23,3.23,0,0,1,.93,0,1.82,1.82,0,0,1,1.25.93,4.29,4.29,0,0,1,.37.85.43.43,0,0,1,0,.07.43.43,0,0,1,0-.07c.15-.53.29-1.05.44-1.57,0-.07,0-.09.11-.09h1c0,.12,0,.24,0,.36a10.5,10.5,0,0,0-.65,1.45c-.17.43-.33.86-.49,1.29a.45.45,0,0,0,0,.11,24.54,24.54,0,0,0,.81,2.78.14.14,0,0,0,.11.1h0C61.46,63.73,61.46,63.73,61.41,64Zm-5.25-3.14a6.93,6.93,0,0,0,.09,1.2,2.5,2.5,0,0,0,.39,1,.84.84,0,0,0,.61.38,1.07,1.07,0,0,0,.8-.23,2.66,2.66,0,0,0,.69-.87,11.57,11.57,0,0,0,.6-1.51.17.17,0,0,0,0-.1c-.06-.37-.12-.75-.19-1.11a3.68,3.68,0,0,0-.41-1.12,1.22,1.22,0,0,0-2-.19,2.37,2.37,0,0,0-.41.88A6.18,6.18,0,0,0,56.16,60.89Z" transform="translate(-1.72 0)" fill="#cecece"/></svg>